<svg width="1200" height="630" viewBox="0 0 1200 630" fill="none" xmlns="http://www.w3.org/2000/svg">
  <!-- Background Gradient -->
  <defs>
    <linearGradient id="backgroundGradient" x1="0%" y1="0%" x2="100%" y2="100%">
      <stop offset="0%" style="stop-color:#eff6ff;stop-opacity:1" />
      <stop offset="50%" style="stop-color:#ffffff;stop-opacity:1" />
      <stop offset="100%" style="stop-color:#f0fdf4;stop-opacity:1" />
    </linearGradient>
  </defs>
  
  <rect width="1200" height="630" fill="url(#backgroundGradient)"/>
  
  <!-- Main Content Container -->
  <g transform="translate(80, 80)">
    
    <!-- Icon -->
    <g transform="translate(0, 40)">
      <circle cx="40" cy="40" r="35" fill="#2563eb" opacity="0.1"/>
      <path d="M20 40 L30 30 L60 60 L50 70 Z" fill="#2563eb"/>
      <path d="M35 25 L45 15 L55 25 L45 35 Z" fill="#2563eb"/>
    </g>
    
    <!-- Main Title -->
    <text x="120" y="95" font-family="system-ui, -apple-system, sans-serif" font-size="72" font-weight="700" fill="#111827">
      StrengthAge
    </text>
    
    <!-- Subtitle -->
    <text x="120" y="145" font-family="system-ui, -apple-system, sans-serif" font-size="32" font-weight="400" fill="#374151">
      Free Strength Age Test for Seniors 55+
    </text>
    
    <!-- Description -->
    <text x="120" y="200" font-family="system-ui, -apple-system, sans-serif" font-size="24" font-weight="300" fill="#6b7280">
      Evidence-based fitness assessment • Chair stands, balance &amp; more
    </text>
    
    <!-- Features -->
    <g transform="translate(120, 240)">
      <!-- Feature 1 -->
      <g>
        <circle cx="12" cy="12" r="8" fill="#10b981"/>
        <path d="M8 12 L11 15 L16 9" stroke="white" stroke-width="2" fill="none"/>
        <text x="30" y="17" font-family="system-ui, -apple-system, sans-serif" font-size="20" fill="#374151">
          No equipment required
        </text>
      </g>
      
      <!-- Feature 2 -->
      <g transform="translate(0, 40)">
        <circle cx="12" cy="12" r="8" fill="#10b981"/>
        <path d="M8 12 L11 15 L16 9" stroke="white" stroke-width="2" fill="none"/>
        <text x="30" y="17" font-family="system-ui, -apple-system, sans-serif" font-size="20" fill="#374151">
          2-minute assessment
        </text>
      </g>
      
      <!-- Feature 3 -->
      <g transform="translate(0, 80)">
        <circle cx="12" cy="12" r="8" fill="#10b981"/>
        <path d="M8 12 L11 15 L16 9" stroke="white" stroke-width="2" fill="none"/>
        <text x="30" y="17" font-family="system-ui, -apple-system, sans-serif" font-size="20" fill="#374151">
          Science-based results
        </text>
      </g>
    </g>
    
    <!-- CTA -->
    <g transform="translate(120, 400)">
      <rect x="0" y="0" width="200" height="60" rx="30" fill="#2563eb"/>
      <text x="100" y="40" font-family="system-ui, -apple-system, sans-serif" font-size="20" font-weight="600" fill="white" text-anchor="middle">
        Take Free Test
      </text>
    </g>
    
    <!-- Website URL -->
    <text x="120" y="500" font-family="system-ui, -apple-system, sans-serif" font-size="18" fill="#6b7280">
      strengthage.com/test
    </text>
    
  </g>
  
  <!-- Right Side Illustration -->
  <g transform="translate(750, 100)">
    <!-- Person illustration (simple geometric) -->
    <g opacity="0.8">
      <!-- Head -->
      <circle cx="150" cy="80" r="35" fill="#f3f4f6"/>
      <!-- Body -->
      <rect x="125" y="115" width="50" height="120" rx="25" fill="#e5e7eb"/>
      <!-- Arms -->
      <rect x="90" y="130" width="15" height="60" rx="7" fill="#e5e7eb"/>
      <rect x="185" y="130" width="15" height="60" rx="7" fill="#e5e7eb"/>
      <!-- Legs -->
      <rect x="135" y="235" width="15" height="80" rx="7" fill="#e5e7eb"/>
      <rect x="155" y="235" width="15" height="80" rx="7" fill="#e5e7eb"/>
      
      <!-- Chair (for chair stand test) -->
      <g transform="translate(50, 280)">
        <rect x="0" y="0" width="80" height="50" fill="#374151"/>
        <rect x="-5" y="50" width="15" height="40" fill="#374151"/>
        <rect x="70" y="50" width="15" height="40" fill="#374151"/>
        <rect x="75" y="-30" width="10" height="80" fill="#374151"/>
      </g>
    </g>
  </g>
</svg>
